<svg id="Layer_1" data-name="Layer 1" xmlns="http://www.w3.org/2000/svg" viewBox="0 0 69.25 69.25"><defs><style>.cls-1{fill:#70dcf9;}.cls-1,.cls-2{fill-rule:evenodd;}.cls-2{fill:#0093dd;}</style></defs><title>iconlogo_presspage</title><g id="iconlogo"><path id="light" class="cls-1" d="M33.36,11.48a23.18,23.18,0,0,0-21.89,22.9v26A34.64,34.64,0,0,1,33.36,0Z" transform="translate(0.01)"/><path id="dark" class="cls-2" d="M35.93,0A34.64,34.64,0,1,1,23.41,67.4V54.89A23.18,23.18,0,1,0,35.93,11.48ZM34.64,23.38a11.23,11.23,0,0,1,8,19.18A11.25,11.25,0,0,1,30.35,45a11.26,11.26,0,0,1-6.94-10.39A11.25,11.25,0,0,1,34.64,23.38Z" transform="translate(0.01)"/></g></svg>